<?xml version="1.0" encoding="UTF-8" standalone="no"?>
<!DOCTYPE svg PUBLIC "-//W3C//DTD SVG 20010904//EN" "http://www.w3.org/TR/2001/REC-SVG-20010904/DTD/svg10.dtd">
<svg version="1.0" xmlns="http://www.w3.org/2000/svg" width="900.000000pt" height="279.000000pt" viewBox="0 0 900.000000 279.000000" preserveAspectRatio="xMidYMid meet">
<metadata>
Created by potrace 1.10, written by Peter Selinger 2001-2011
</metadata>
<g transform="translate(0.000000,279.000000) scale(0.100000,-0.100000)" fill="#000000" stroke="none">
<path d="M1913 2742 c-16 -2 -23 -10 -23 -25 0 -12 0 -589 -1 -1282 -1 -705 3 -1261 8 -1262 4 -2 73 62 153 142 l145 145 2 223 c2 256 7 300 38 371 22 51 78 131 119 172 25 25 98 73 141 92 41 19 151 42 200 42 77 0 233 -43 249 -69 3 -5 18 -12 33 -16 24 -6 37 4 125 92 54 54 98 103 98 109 0 26 -126 104 -225 140 -71 27 -216 54 -284 54 -130 0 -303 -52 -423 -127 -42 -25 -68 -30 -68 -10 0 6 0 273 0 592 0 462 -2 584 -13 598 -11 16 -30 18 -132 20 -66 1 -130 1 -142 -1z"/>
<path d="M7232 2693 c-48 -17 -117 -79 -147 -133 -28 -51 -27 -179 3 -236 50 -98 127 -144 238 -144 141 0 237 78 265 216 18 90 -6 161 -80 234 -80 79 -174 100 -279 63z"/>
<path d="M8195 2573 c-11 -3 -26 -10 -34 -16 -14 -12 -47 -32 -71 -43 -8 -4 -58 -33 -110 -64 -52 -31 -102 -59 -110 -63 -8 -4 -28 -16 -45 -27 -16 -11 -37 -23 -45 -27 -17 -8 -257 -148 -280 -163 -8 -6 -25 -14 -36 -19 -12 -5 -38 -26 -57 -46 -28 -29 -37 -48 -42 -89 -8 -59 6 -122 32 -151 10 -11 45 -51 78 -90 63 -73 96 -110 164 -185 22 -25 41 -50 41 -56 0 -6 -23 -30 -51 -54 -101 -85 -190 -227 -245 -390 -28 -81 -27 -361 0 -440 22 -62 78 -180 106 -225 11 -16 23 -36 26 -42 13 -28 43 -9 140 88 l102 102 -29 49 c-16 27 -29 53 -29 59 0 5 -7 24 -16 40 -24 46 -21 247 4 317 11 29 24 58 31 65 6 6 11 17 11 24 0 8 35 49 78 92 56 58 96 87 147 112 66 32 77 34 194 37 99 3 132 0 165 -13 72 -30 111 -49 129 -64 17 -14 26 -8 123 90 57 58 104 110 104 116 0 12 -70 62 -130 93 -25 12 -57 29 -72 36 -14 8 -32 14 -40 14 -20 1 -56 36 -158 155 -52 61 -100 115 -105 120 -6 6 -39 42 -73 81 -66 76 -76 108 -39 124 12 6 36 19 52 30 17 11 40 24 52 29 11 5 24 15 28 20 13 22 60 11 96 -22 20 -17 71 -63 114 -102 116 -105 162 -135 207 -135 110 0 192 108 158 210 -11 33 -41 66 -159 173 -80 72 -164 148 -186 169 -76 70 -93 79 -147 83 -29 2 -62 1 -73 -2z"/>
<path d="M695 1655 c-27 -8 -58 -15 -68 -15 -11 0 -33 -6 -50 -14 -18 -7 -52 -21 -77 -32 -25 -10 -52 -24 -61 -31 -8 -7 -19 -13 -24 -13 -4 0 -28 -16 -52 -36 l-45 -37 94 -94 c51 -52 101 -99 110 -104 12 -7 34 -1 80 23 68 34 158 57 228 58 55 0 179 -25 193 -39 6 -6 17 -11 24 -11 29 0 186 -134 204 -175 5 -11 20 -39 33 -62 13 -23 32 -82 42 -131 17 -86 17 -93 0 -172 -18 -84 -39 -142 -64 -172 -7 -9 -12 -26 -10 -37 4 -24 395 -421 415 -421 11 0 13 137 11 758 l-3 757 -146 3 -147 3 -6 -25 c-3 -14 -6 -55 -5 -91 1 -36 -1 -68 -4 -71 -3 -3 -30 12 -60 35 -56 41 -144 88 -207 110 -126 45 -316 61 -405 36z"/>
<path d="M4415 1659 c-22 -5 -60 -13 -85 -18 -109 -22 -196 -65 -319 -158 -6 -5 178 -191 200 -203 12 -7 35 0 79 22 65 32 176 58 245 58 117 -1 244 -58 335 -149 104 -106 151 -217 151 -361 0 -88 -41 -237 -71 -255 -5 -3 -10 -17 -10 -30 0 -17 28 -52 96 -119 52 -53 99 -96 104 -96 14 0 66 72 98 135 120 242 124 480 10 720 -62 132 -186 267 -323 353 -45 28 -152 69 -230 88 -75 19 -227 26 -280 13z"/>
<path d="M6205 1654 c-95 -23 -166 -47 -215 -72 -87 -46 -150 -89 -150 -102 0 -10 192 -198 208 -205 8 -3 27 2 41 12 49 33 96 50 179 63 163 27 314 -22 432 -140 156 -156 194 -377 99 -575 -16 -33 -29 -68 -29 -77 0 -17 184 -208 200 -208 15 0 74 83 108 155 92 189 106 421 36 608 -32 86 -49 123 -61 138 -7 8 -13 19 -13 23 0 14 -87 120 -137 167 -62 59 -145 120 -183 135 -8 3 -28 12 -45 19 -161 71 -333 92 -470 59z"/>
<path d="M8780 1373 c-18 -7 -200 -188 -200 -200 0 -4 10 -30 24 -58 54 -114 56 -121 56 -245 0 -123 -1 -128 -54 -239 -24 -49 -140 -175 -177 -191 -13 -5 -31 -14 -39 -19 -61 -36 -107 -46 -225 -46 -90 0 -131 4 -160 17 -22 9 -47 19 -55 22 -8 4 -28 15 -45 25 -16 11 -33 20 -38 20 -11 1 -207 -195 -207 -207 0 -17 81 -77 140 -105 163 -76 322 -101 482 -76 203 32 371 126 505 282 47 55 54 67 101 162 67 134 75 175 76 355 1 169 -4 201 -51 310 -27 62 -109 203 -116 199 -1 0 -9 -3 -17 -6z"/>
<path d="M173 1323 c-17 -21 -33 -45 -36 -53 -4 -8 -18 -35 -32 -59 -14 -24 -25 -50 -25 -57 0 -7 -6 -28 -14 -46 -25 -58 -46 -173 -46 -250 0 -132 49 -310 113 -413 122 -196 278 -312 508 -379 74 -21 316 -22 374 -1 22 8 48 15 58 15 11 0 31 6 45 14 15 7 49 24 75 37 78 38 92 47 120 73 15 14 24 30 20 38 -3 7 -51 56 -105 108 -85 81 -101 93 -116 83 -27 -19 -92 -48 -147 -66 -88 -30 -264 -17 -335 23 -8 5 -33 19 -55 30 -96 51 -206 202 -234 323 -25 106 -7 241 45 342 17 33 29 67 26 75 -7 19 -188 200 -200 200 -6 0 -23 -17 -39 -37z"/>
<path d="M3207 1261 c-91 -92 -110 -122 -88 -135 13 -8 45 -80 65 -145 14 -46 16 -113 16 -482 l0 -429 23 -5 c12 -3 78 -4 147 -3 l125 3 3 458 c2 428 1 462 -18 533 -31 121 -130 304 -164 304 -7 0 -56 -44 -109 -99z"/>
<path d="M3862 1323 c-31 -40 -79 -130 -105 -198 -62 -163 -62 -370 0 -540 74 -202 229 -376 408 -458 22 -10 53 -25 68 -33 16 -8 37 -14 47 -14 9 0 34 -7 55 -16 30 -12 67 -15 194 -11 194 5 258 22 409 110 53 31 82 54 82 65 0 23 -190 212 -213 212 -9 0 -17 -4 -17 -8 0 -5 -17 -16 -37 -26 -158 -76 -319 -75 -473 4 -76 39 -183 153 -219 235 -15 35 -36 112 -45 170 -12 69 32 249 72 297 7 9 12 25 10 37 -3 20 -183 211 -198 211 -5 0 -22 -17 -38 -37z"/>
<path d="M5699 1336 c-22 -22 -81 -130 -109 -201 -50 -124 -67 -337 -35 -441 8 -27 15 -57 15 -66 0 -24 63 -157 107 -226 94 -147 273 -277 453 -331 41 -12 96 -16 215 -16 160 0 189 4 306 47 66 24 199 109 199 127 0 21 -190 211 -212 211 -9 0 -19 -4 -23 -9 -8 -14 -63 -40 -129 -62 -107 -35 -232 -23 -369 35 -61 26 -177 145 -214 217 -33 68 -63 174 -63 228 0 75 53 249 81 267 27 16 4 54 -89 147 -53 53 -100 97 -103 97 -4 0 -17 -11 -30 -24z"/>
<path d="M790 1282 c-14 -2 -37 -15 -52 -30 -24 -22 -28 -34 -28 -78 0 -46 4 -55 31 -78 22 -19 42 -26 73 -26 90 0 140 108 81 178 -25 30 -58 40 -105 34z"/>
<path d="M461 1019 c-26 -28 -27 -61 -3 -81 10 -9 66 -23 135 -33 115 -17 117 -18 117 -44 0 -51 -48 -252 -76 -319 -20 -46 -18 -96 4 -115 39 -36 83 -11 109 61 12 33 20 57 51 167 10 36 26 39 30 5 4 -36 50 -177 72 -220 13 -27 56 -35 84 -16 30 19 34 56 12 108 -32 75 -76 258 -76 316 l0 39 117 18 c93 14 121 22 135 39 24 29 22 48 -7 76 -20 19 -31 22 -72 17 -26 -3 -97 -11 -157 -18 -107 -12 -150 -10 -402 18 -45 5 -54 2 -73 -18z"/>
<path d="M2089 136 c-46 -47 -84 -91 -84 -98 0 -9 22 -12 85 -11 106 3 112 9 108 112 -2 41 -8 76 -14 78 -6 2 -48 -35 -95 -81z"/>
<path d="M1376 164 c-8 -20 -8 -82 0 -110 5 -19 15 -22 67 -27 99 -7 101 1 22 82 -37 39 -72 71 -76 71 -4 0 -10 -7 -13 -16z"/>
</g>
</svg>